<?xml version="1.0"?>
<svg xmlns="http://www.w3.org/2000/svg" xmlns:xlink="http://www.w3.org/1999/xlink" version="1.1" id="Layer_1" x="0px" y="0px" viewBox="0 0 512 512" style="enable-background:new 0 0 512 512;" xml:space="preserve" width="512px" height="512px" class=""><g><g>
	<g>
		<g>
			<g>
				<path style="fill:#E9D6C9" d="M479.388,512H32.612C14.601,512,0,497.399,0,479.388V32.612C0,14.601,14.601,0,32.612,0h446.777      C497.399,0,512,14.601,512,32.612v446.777C512,497.399,497.399,512,479.388,512z" data-original="#EDEDED" class="" data-old_color="#e9d6c9"/>
				<path style="fill:#F2B885" d="M479.388,0H458.88v512h20.508C497.399,512,512,497.399,512,479.388V32.612      C512,14.601,497.399,0,479.388,0z" data-original="#D6D6D6" class="" data-old_color="#E9D6C9"/>
				<path style="fill:#345863" d="M444.962,255.979c0,104.361-84.601,188.962-188.962,188.962S67.038,360.34,67.038,255.979      S151.639,67.017,256,67.017c61.899,0,116.846,29.762,151.312,75.756c7.164,9.56,13.443,19.821,18.715,30.661      c3.797,7.806,7.072,15.913,9.78,24.275C441.751,216.063,444.962,235.646,444.962,255.979z" data-original="#345863" class="" data-old_color="#345863"/>
				<path style="fill:#1E4751" d="M256,67.017c-9.031,0-17.909,0.648-26.602,1.873c91.763,12.931,162.361,91.759,162.361,187.089      s-70.598,174.158-162.361,187.089c8.693,1.225,17.571,1.873,26.602,1.873c104.361,0,188.962-84.601,188.962-188.962      S360.361,67.017,256,67.017z" data-original="#1E4751" class="" data-old_color="#56143A"/>
				<circle style="fill:#8C4A6F" cx="256" cy="255.979" r="56.468" data-original="#F43B45" class="" data-old_color="#F43B45"/>
				<circle style="fill:#E9D6C9" cx="256" cy="255.979" r="17.492" data-original="#EDEDED" class="" data-old_color="#e9d6c9"/>
				<g>
					<path style="fill:#EF8229" d="M372.062,321.546c-1.691,0-3.393-0.553-4.817-1.69c-3.334-2.663-3.877-7.525-1.214-10.859       l8.141-10.191c10.201-13.586,17.266-28.877,21.001-45.454l36.33-156.374c0.966-4.156,5.119-6.745,9.274-5.777       c4.156,0.965,6.743,5.118,5.777,9.274l-36.318,156.324c-4.215,18.711-12.221,36.017-23.782,51.385       c-0.045,0.06-0.091,0.119-0.138,0.178l-8.213,10.28C376.577,320.551,374.33,321.546,372.062,321.546z" data-original="#EF8229" class="" data-old_color="#EF8229"/>
				</g>
				<circle style="fill:#345863" cx="442.978" cy="77.145" r="29.701" data-original="#345863" class="" data-old_color="#345863"/>
				<g>
					<path style="fill:#F2B885" d="M345.399,355.582c-4.089,0-8.175-1.578-11.267-4.725c-6.112-6.222-6.023-16.222,0.199-22.334       l24.652-24.217c6.223-6.11,16.222-6.022,22.334,0.199c6.112,6.222,6.023,16.222-0.199,22.334l-24.652,24.217       C353.391,354.075,349.393,355.582,345.399,355.582z" data-original="#FFE471" class="active-path" data-old_color="#E9D6C9"/>
				</g>
			</g>
			<circle style="fill:#EF8229" cx="56.394" cy="455.902" r="20.52" data-original="#EF8229" class="" data-old_color="#EF8229"/>
			<circle style="fill:#EF8229" cx="125.353" cy="455.902" r="20.52" data-original="#EF8229" class="" data-old_color="#EF8229"/>
		</g>
	</g>
</g></g> </svg>
