<?xml version="1.0"?>
<svg xmlns="http://www.w3.org/2000/svg" height="512px" viewBox="0 -31 512 512" width="512px" class=""><g><path d="m456.917969 450h-401.835938c-30.371093 0-55.082031-24.710938-55.082031-55.082031v-339.835938c0-30.371093 24.710938-55.082031 55.082031-55.082031h401.835938c30.371093 0 55.082031 24.710938 55.082031 55.082031v339.835938c0 30.371093-24.710938 55.082031-55.082031 55.082031zm0 0" fill="#deecf1" data-original="#DEECF1" class="" style="fill:#F2B885" data-old_color="#F0A35B"/><path d="m456.921875 0h-246.113281v450h246.113281c30.367187 0 55.078125-24.710938 55.078125-55.078125v-339.84375c0-30.367187-24.710938-55.078125-55.078125-55.078125zm0 0" fill="#d2e5ec" data-original="#D2E5EC" class="" style="fill:#E9D6C9" data-old_color="#E9D5C8"/><path d="m210.25 390c-82.710938 0-150-67.289062-150-150 0-80.949219 65.09375-150 151.125-150 82.710938 0 150 67.289062 150 150 0 80.949219-65.09375 150-151.125 150zm0 0" fill="#5a6571" data-original="#5A6571" class=""/><path d="m210.808594 90v300c85.75-.300781 150.570312-69.230469 150.570312-150 0-81.667969-66.023437-150-150.570312-150zm0 0" fill="#3b424a" data-original="#3B424A" class=""/><path d="m210.8125 270c-16.578125 0-30.0625-13.457031-30.0625-30s13.484375-30 30.0625-30 30.0625 13.457031 30.0625 30-13.484375 30-30.0625 30zm0 0" fill="#fed32d" data-original="#FED32D" class="active-path" style="fill:#E9D6C9" data-old_color="#F2B885"/><path d="m240.878906 240c0 16.539062-13.488281 30-30.070312 30v-60c16.582031 0 30.070312 13.460938 30.070312 30zm0 0" fill="#fdc334" data-original="#FDC334" class="" style="fill:#F25E6B" data-old_color="#F2766B"/><path d="m391.625 145v97.691406l-138.554688 27.597656c-8.125 1.617188-13.398437 9.515626-11.78125 17.640626 1.621094 8.136718 9.527344 13.398437 17.640626 11.78125l150.625-30c7.015624-1.398438 12.070312-7.554688 12.070312-14.710938v-110zm0 0" fill="#fd7b29" data-original="#FD7B29" class="" style="fill:#8C4A6F" data-old_color="#FD7B29"/><path d="m436.75 150h-60.25c-8.285156 0-15-6.714844-15-15v-60c0-8.285156 6.714844-15 15-15h60.25c8.285156 0 15 6.714844 15 15v60c0 8.285156-6.714844 15-15 15zm0 0" fill="#bf0c4c" data-original="#BF0C4C" class="" style="fill:#453659" data-old_color="#BF0C4C"/></g> </svg>
